<svg xmlns="http://www.w3.org/2000/svg" width="600" height="420.21" viewBox="0 0 600 420.21"><path d="M173.729 284.81c-39.545 0-71.716-32.173-71.716-71.716 0-39.545 32.17-71.718 71.716-71.718s71.716 32.173 71.716 71.718c0 39.543-32.17 71.716-71.716 71.716zm0-139.869c-37.58 0-68.151 30.574-68.151 68.153 0 37.577 30.572 68.15 68.15 68.15s68.152-30.573 68.152-68.15c0-37.58-30.57-68.153-68.151-68.153z" fill="#676d6f"/><path d="M173.729 130.523c-45.532 0-82.571 37.041-82.571 82.57s37.04 82.572 82.57 82.572c45.53 0 82.572-37.041 82.572-82.571s-37.041-82.571-82.571-82.571zm0 161.576c-43.565 0-79.007-35.443-79.007-79.005 0-43.565 35.442-79.007 79.007-79.007 43.563 0 79.005 35.442 79.005 79.007 0 43.562-35.442 79.005-79.005 79.005zm5.39-211.47c-68.031 0-123.378 55.348-123.378 123.381 0 68.03 55.347 123.376 123.379 123.376S302.499 272.04 302.499 204.01c0-68.033-55.349-123.38-123.38-123.38zm0 243.192c-66.065 0-119.812-53.748-119.812-119.812S113.054 84.196 179.12 84.196s119.812 53.749 119.812 119.813S245.186 323.82 179.12 323.82z" fill="#ac3800"/><path d="M180.148 337.795c-74.647 0-135.373-60.73-135.373-135.373s60.726-135.37 135.373-135.37 135.372 60.725 135.372 135.37-60.727 135.373-135.372 135.373zm0-267.179c-72.68 0-131.806 59.127-131.806 131.806s59.127 131.806 131.806 131.806 131.806-59.127 131.806-131.806S252.827 70.616 180.148 70.616z" fill="#6b8797"/><path d="M163.698 370.729C73.435 370.729 0 297.293 0 207.032 0 116.77 73.435 43.334 163.698 43.334s163.698 73.435 163.698 163.698c0 90.261-73.435 163.697-163.698 163.697zm0-323.83c-88.297 0-160.131 71.837-160.131 160.133s71.835 160.13 160.131 160.13S323.83 295.33 323.83 207.032 251.997 46.9 163.698 46.9z" fill="#ecaf00"/><path d="M193.041 420.21c-90.054 0-163.322-73.265-163.322-163.321s73.268-163.32 163.322-163.32 163.322 73.265 163.322 163.321-73.267 163.32-163.324 163.32h.002zm0-323.075c-88.086 0-159.755 71.667-159.755 159.755s71.667 159.754 159.755 159.754 159.755-71.665 159.755-159.754S281.13 97.135 193.041 97.135z" fill="#eda3b6"/><path d="M207.593 374.768c-103.325 0-187.384-84.06-187.384-187.382C20.209 84.06 104.269 0 207.593 0s187.384 84.06 187.384 187.386c0 103.322-84.06 187.382-187.384 187.382zm0-371.203c-101.357 0-183.818 82.463-183.818 183.82 0 101.356 82.461 183.816 183.818 183.816s183.819-82.46 183.819-183.815c0-101.358-82.461-183.82-183.82-183.82v-.001z" fill="#e88a00"/><path d="M173.729 319.318c-58.574 0-106.226-47.65-106.226-106.224s47.652-106.226 106.226-106.226c58.572 0 106.224 47.654 106.224 106.226S232.3 319.32 173.729 319.32v-.002zm0-194.62c-48.74 0-88.397 39.655-88.397 88.396s39.656 88.395 88.397 88.395 88.395-39.654 88.395-88.395-39.652-88.397-88.395-88.397z" fill="#ed9e00"/><path d="M213.67 208.007c0-1.606-1.32-4.35-5.563-4.35H197.91v8.166h10.197c4.207 0 5.562-1.782 5.563-3.816zm0-.001v.002-.002zm-5.563 9.7v.001H197.91v9.091h10.197c2.746 0 6.633-.928 6.633-4.242 0-3.21-3.887-4.85-6.633-4.85zm17.544-9.842c0-9.484-6.88-15.618-17.544-15.618h-22.143c-.64.856-1.283 1.713-1.89 2.569l-2.317 2.316c-1.249 1.284-3.423 2.14-5.384 2.14-5.883 0-7.167-3.852-7.203-7.06 0-2.14.712-4.135 1.996-5.42 1.213-1.212 2.959-1.818 5.207-1.818 2.03 0 3.815.678 5.063 1.89l3.744 3.636 3.708-3.602 4.6-4.42 3.922-3.816-3.887-3.852c-4.635-4.6-10.733-7.094-17.15-7.094-7.097 0-13.23 2.353-17.686 6.846-4.458 4.492-6.99 10.946-6.954 17.722 0 .82.035 1.676.143 2.495h-2.567v25.673c0 4.423-2.07 4.423-3.316 4.423-1.856 0-3.817-.357-3.817-4.423v-25.673h-17.328v25.673c0 12.659 8.486 21.18 21.109 21.18 12.552 0 20.68-8.307 20.68-21.18v-5.67c.894.358 1.82.643 2.82.857v40.97h34.3v-16.545H186.5v-1.676h21.607c11.661 0 18.614-5.918 18.614-15.796 0-2.639-.963-5.67-2.817-8.201 1.141-1.926 1.747-4.136 1.747-6.526zm-79.694 28.42c-8.522 0-15.76-5.135-15.76-15.833v-20.324h6.632v20.324c0 6.384 3.637 9.77 9.164 9.77 5.528 0 8.664-3.708 8.664-9.77v-16.08a21.706 21.706 0 0 0 6.632 7.7V220.453c0 10.482-6.417 15.831-15.332 15.831zm52.45 9.128v5.847h-23.603v-33.553h6.347v27.706h17.257zm-9.768-38.367h-.001c-.417.34-.857.65-1.319.928-.427.283-.893.534-1.355.782-2.889 1.57-6.133 2.318-9.591 2.318-3.852 0-7.097-.747-9.735-2.102a11.617 11.617 0 0 1-2.674-1.676 12.204 12.204 0 0 1-2.675-2.569 15.81 15.81 0 0 1-2.709-4.6 14.584 14.584 0 0 1-.858-2.673c-.24-.874-.395-1.77-.462-2.675-.13-.837-.19-1.684-.178-2.532-.07-9.52 6.133-19.182 19.29-19.182 4.956 0 9.664 1.854 13.407 5.562l-4.6 4.421c-2.388-2.353-5.634-3.423-8.806-3.423-8.772 0-12.59 6.56-12.552 12.624 0 .854.072 1.674.25 2.53.356 2.104 1.177 4.137 2.567 5.778 1.996 2.423 5.135 4.064 9.735 4.064 3.172 0 6.776-1.319 9.164-3.709l.427.427 2.675 2.71 1.604 1.606c-.499.5-1.033.963-1.604 1.39zm19.468 25.993h-16.794v-35.443h16.794c6.99 0 12.195 3.138 12.195 10.269 0 2.747-1.318 5.386-4.6 6.846 4.173 1.248 5.67 5.671 5.67 7.88 0 7.916-5.918 10.448-13.265 10.448zM344.11 175.6h-13.698v64.603h39.902V228.89h-26.204V175.6zm57.179 42.995c-.943 2.681-1.576 5.539-1.9 8.573h-.265c-.295-3.299-.84-6.157-1.635-8.573l-9.324-27.794h-14.758l19.62 49.049-.796 2.43c-1.002 2.945-2.394 5.148-4.176 6.605-1.783 1.46-3.866 2.188-6.253 2.188-1.915 0-3.682-.192-5.302-.575v10.694c2.238.501 4.521.751 6.849.751 4.742 0 8.889-1.281 12.439-3.844 3.55-2.563 6.282-6.422 8.197-11.577l20.9-55.721h-14.45l-9.146 27.794zm64.294-25.629c-3.624-2.062-7.807-3.093-12.55-3.093-7.63 0-13.551 2.239-17.763 6.716-4.213 4.478-6.32 10.753-6.32 18.825 0 5.185.973 9.721 2.917 13.61 1.944 3.888 4.728 6.87 8.352 8.947 3.623 2.078 7.805 3.116 12.549 3.116 7.57 0 13.477-2.268 17.72-6.805 4.241-4.536 6.362-10.826 6.362-18.868 0-5.185-.972-9.706-2.916-13.566-1.945-3.859-4.728-6.82-8.351-8.882zm-4.883 33.56c-1.577 2.49-4.162 3.735-7.755 3.735-3.624 0-6.238-1.252-7.843-3.756-1.607-2.504-2.409-6.2-2.409-11.091 0-4.92.796-8.595 2.386-11.025 1.591-2.43 4.183-3.646 7.778-3.646 3.623 0 6.23 1.223 7.82 3.667 1.591 2.446 2.387 6.114 2.387 11.004 0 4.92-.789 8.624-2.364 11.113zm55.345-36.653c-3.359 0-6.357.612-8.993 1.834-2.636 1.223-4.706 3.027-6.208 5.413h-.751l-1.812-6.32h-10.296v49.403h13.478v-23.243c0-5.833.84-10.009 2.518-12.527 1.68-2.52 4.404-3.778 8.175-3.778 2.769 0 4.787.891 6.054 2.673 1.266 1.783 1.9 4.456 1.9 8.02v28.855h13.477v-32.213c0-5.862-1.488-10.347-4.463-13.455-2.976-3.108-7.335-4.662-13.08-4.662zm72.732-14.273l-20.812 16.57 6.628 8.22 7.424-5.966a23.44 23.44 0 0 0 1.37-1.193 122.874 122.874 0 0 0 2.562-2.474c.353-.354.603-.619.751-.796-.03.972-.066 2.048-.11 3.226l-.133 3.513a138.396 138.396 0 0 0-.088 3.358 198.433 198.433 0 0 0-.022 2.762v37.383H600v-64.603h-11.224z" fill="#57585a"/></svg>